{"title":"Deftones - Around The Fur - Custom Remaster by MC Lurken 16-bit","uid":7521967,"size":378780370,"categoryP":"audio","categoryS":"flac","magnet":"?xt=urn:btih:2b33c4673ecb5d5da4ded1251bfc8a8a9778d6f3&amp;dn=Deftones+-+Around+The+Fur+-+Custom+Remaster+by+MC+Lurken+16-bit+&amp;tr=udp%3A%2F%2Ftracker.openbittorrent.com%3A80&amp;tr=udp%3A%2F%2Fopen.demonii.com%3A1337&amp;tr=udp%3A%2F%2Ftracker.coppersurfer.tk%3A6969&amp;tr=udp%3A%2F%2Fexodus.desync.com%3A6969","seeders":1,"leechers":0,"uploader":"beavis39","files":-1,"time":1344656283,"description":"Deftones - Around The Fur - Custom Remaster by MC Lurken(a.k.a. Beavis39)\n\n\n\n!!!!!!!!!!!!!THIS IS NOT AN OFFICIAL REMASTER, THIS IS A FAN RELEASE!!!!!!!!!!!!!!\n!!!!!!!!!!!!!THIS IS NOT AN OFFICIAL REMASTER, THIS IS A FAN RELEASE!!!!!!!!!!!!!!\n!!!!!!!!!!!!!THIS IS NOT AN OFFICIAL REMASTER, THIS IS A FAN RELEASE!!!!!!!!!!!!!!\n\n\n\n1 - My Own Summer (Shove It)\n2 - Lhabia\n3 - Mascara\n4 - Around The Fur\n5 - Rickets\n6 - Be Quiet And Drive (Far Away)\n7 - Lotion\n8 - Dai The Flu\n9 - Headup\n10 - MX\n11 - Damone\n\n\n\nSetup:\n-HP G72-250US\n-Intel Core i3 M350 2.27GHz\n-8Gb PC3-10700 RAM\n-Win7 64-bit SP1\n-SB X-Fi Surround 5.1\n\nProcess:\n-Original 16/44.1 files joined in Wavelab 6\n-DC offset removed, this will yield a file with a bit depth of 18-24 bits\n-Resample to 384kHz in Wavelab w/crystal resampler ultra(slow) relax background priority\n-Create new 64-bit/384kHz master recording in Wavelab (-0.02db gain)\n\nAs reported in Wavelab:\n-Original 16/44 - Apparent Bit Resolution = 16, Peak = -0.009db\n-DC Offset Removed - Apparent Bit Resolution = No Offset (16), Peak = -0.009db\n-Final Recording - Apparent Bit Resolution = 42, Peak = 1.887db\n\n-Resample 64-bit/384kHz to 64-bit/44.1kHz in Wavelab w/crystal resampler ultra(slow) relax background priority\n-Apply MBIT+ Dither in Wavelab 6 w/Izotope Ozone 5 VST Plugin\n\nMBIT+ Dither Settings:\n*Noise Shaping - None\n*Bit Depth - 16\n*Dither Amount - None\n*Auto-Blanking - On\n*Limit Peaks - Off\n*Harmonic Suppression - On\n\n-Flac encode level 0 with Trader's Little Helper\n-Tag and pic with xrecode II\n\n\nfoobar2000 1.1.13 / Dynamic Range Meter 1.1.1\nlog date: 2012-08-09 05:23:22\n\n--------------------------------------------------------------------------------\nAnalyzed: ? / ?\n--------------------------------------------------------------------------------\n\nDR         Peak         RMS     Duration Track\n--------------------------------------------------------------------------------\nDR7       -0.08 dB    -8.44 dB      3:35 ?-01 - My Own Summer (Shove It)\nDR8       -0.09 dB    -8.87 dB      4:11 ?-02 - Lhabia\nDR9       -0.18 dB   -12.03 dB      3:45 ?-03 - Mascara\nDR8       -0.08 dB    -9.07 dB      3:32 ?-04 - Around The Fur\nDR9       -0.08 dB    -9.98 dB      2:43 ?-05 - Rickets\nDR8       -0.08 dB    -9.73 dB      5:08 ?-06 - Be Quiet And Drive (Far Away)\nDR8       -0.08 dB    -8.95 dB      3:58 ?-07 - Lotion\nDR8       -0.10 dB    -8.89 dB      4:37 ?-08 - Dai The Flu\nDR8       -0.13 dB   -10.67 dB      5:13 ?-09 - Headup\nDR9       -0.20 dB   -10.16 dB      4:51 ?-10 - MX\nDR8       -0.25 dB    -9.66 dB      4:43 ?-11 - Damone\n--------------------------------------------------------------------------------\n\nNumber of tracks:  11\nOfficial DR value: DR8\n\nSamplerate:        44100 Hz\nChannels:          2\nBits per sample:   16\nBitrate:           1411 kbps\nCodec:             PCM\n\n\n\nenjoy :)","torrent":{"xt":"urn:btih:2b33c4673ecb5d5da4ded1251bfc8a8a9778d6f3","amp;dn":"Deftones+-+Around+The+Fur+-+Custom+Remaster+by+MC+Lurken+16-bit+","amp;tr":["udp%3A%2F%2Ftracker.openbittorrent.com%3A80","udp%3A%2F%2Fopen.demonii.com%3A1337","udp%3A%2F%2Ftracker.coppersurfer.tk%3A6969","udp%3A%2F%2Fexodus.desync.com%3A6969"],"infoHash":"2b33c4673ecb5d5da4ded1251bfc8a8a9778d6f3","infoHashBuffer":{"type":"Buffer","data":[43,51,196,103,62,203,93,93,164,222,209,37,27,252,138,138,151,120,214,243]},"announce":[],"urlList":[]}}